<!-- <?xml version="1.0" standalone="no"?>
<!DOCTYPE svg PUBLIC "-//W3C//DTD SVG 20010904//EN"
 "http://www.w3.org/TR/2001/REC-SVG-20010904/DTD/svg10.dtd"> -->
<svg version="1.0" xmlns="http://www.w3.org/2000/svg"
 width="675.000000pt" height="169.000000pt" viewBox="0 0 675.000000 169.000000"
 preserveAspectRatio="xMidYMid meet">

<g transform="translate(0.000000,169.000000) scale(0.100000,-0.100000)"
fill="#3c4fe0" stroke="none">
<path d="M853 1670 c-13 -5 -23 -14 -23 -19 0 -5 -24 -17 -54 -25 -66 -20
-165 -85 -205 -135 -46 -58 -81 -135 -93 -204 -6 -34 -20 -71 -30 -83 -21 -24
-24 -82 -4 -109 11 -16 30 -20 90 -23 l75 -4 -14 -28 c-12 -23 -23 -29 -52
-32 l-38 -3 0 -85 0 -85 42 -3 c38 -3 43 -6 53 -38 11 -32 10 -38 -9 -58 -12
-12 -21 -30 -21 -40 0 -19 94 -116 113 -116 6 0 23 11 38 26 26 25 26 25 63 8
32 -16 36 -22 36 -55 0 -42 13 -49 90 -49 78 0 90 7 90 51 0 35 3 40 37 54 35
15 37 15 63 -10 14 -14 31 -25 38 -25 18 0 112 99 112 119 0 10 -11 28 -24 40
-24 23 -24 24 -8 57 14 30 20 34 54 34 45 0 51 13 46 110 l-3 65 -42 3 c-36 3
-43 7 -52 33 l-10 29 63 0 c83 0 111 20 111 80 0 30 -6 47 -21 59 -14 11 -23
33 -27 70 -19 156 -155 308 -314 350 -24 7 -43 18 -43 25 0 24 -81 34 -127 16z
m97 -120 c0 -73 3 -90 15 -90 12 0 15 14 15 70 0 78 4 81 65 56 l35 -15 0 -80
c0 -65 3 -81 15 -81 12 0 15 14 15 64 0 36 4 67 9 71 6 3 35 -19 66 -49 60
-59 107 -147 120 -223 l7 -43 -405 0 -404 0 9 52 c13 73 59 157 114 211 26 26
51 47 56 47 4 0 8 -29 8 -65 0 -51 3 -65 15 -65 12 0 15 15 15 79 l0 79 40 16
c66 26 69 24 72 -51 2 -53 6 -68 18 -68 12 0 16 18 18 88 l3 87 39 0 40 0 0
-90z m395 -400 l0 -35 -437 -3 -438 -2 -6 25 c-14 56 -20 55 450 53 l431 -3 0
-35z m-621 -125 c-74 -132 14 -298 165 -313 168 -16 284 159 207 312 l-24 47
52 -3 c50 -3 51 -4 66 -45 13 -40 17 -43 52 -43 34 0 38 -3 43 -34 11 -54 -1
-76 -40 -76 -31 0 -35 -4 -59 -57 l-26 -56 26 -28 c30 -31 24 -53 -24 -88
l-29 -20 -26 26 -26 26 -58 -25 c-54 -23 -58 -27 -61 -61 l-3 -37 -55 0 -54 0
0 39 c0 32 -4 41 -22 46 -13 4 -38 14 -56 22 -32 15 -34 15 -61 -11 l-28 -27
-37 34 c-20 19 -36 39 -36 44 0 5 11 20 24 32 l23 22 -23 57 c-22 55 -24 57
-64 60 l-41 3 3 52 3 52 39 5 c36 5 41 9 55 48 l15 42 52 0 53 0 -25 -45z
m314 22 c27 -29 52 -89 52 -124 -1 -42 -33 -105 -69 -136 -38 -32 -100 -50
-138 -41 -147 35 -200 193 -100 302 19 20 29 22 127 22 98 0 108 -2 128 -23z" />
<path d="M6673 1257 l-53 -10 0 -503 0 -504 60 0 60 0 0 515 c0 283 -3 514 -7
514 -5 -1 -32 -6 -60 -12z"/>
<path d="M4471 1245 c-180 -58 -291 -258 -291 -525 0 -297 120 -468 351 -502
99 -15 255 14 328 61 22 14 -5 95 -28 85 -101 -43 -152 -57 -221 -57 -93 -1
-141 15 -195 64 -82 76 -123 226 -112 407 12 203 84 335 206 378 67 24 212 14
303 -21 13 -5 20 0 27 16 24 66 25 64 -36 84 -76 25 -269 31 -332 10z"/>
<path d="M1760 745 l0 -505 60 0 60 0 2 447 3 447 268 -447 268 -447 74 0 75
0 0 505 0 505 -60 0 -60 0 -2 -442 -3 -442 -261 439 -260 440 -82 3 -82 3 0
-506z"/>
<path d="M2976 989 c-86 -21 -170 -102 -207 -198 -27 -72 -37 -218 -19 -301
25 -116 107 -214 203 -242 93 -27 265 -3 331 47 19 14 19 16 1 55 -16 36 -20
39 -34 26 -56 -51 -201 -73 -274 -42 -70 30 -110 100 -123 216 l-7 60 248 0
248 0 -5 88 c-8 140 -65 237 -163 278 -44 18 -151 25 -199 13z m157 -90 c62
-32 107 -112 107 -191 l0 -28 -195 0 -194 0 6 33 c16 87 57 149 118 181 35 18
127 21 158 5z"/>
<path d="M5250 991 c-182 -34 -269 -172 -258 -411 7 -134 32 -205 98 -270 59
-60 127 -85 230 -84 93 0 147 15 202 57 87 67 128 170 128 327 0 241 -99 367
-300 384 -30 3 -75 1 -100 -3z m189 -114 c66 -44 94 -114 99 -248 5 -138 -12
-202 -71 -263 -103 -107 -261 -79 -332 59 -28 56 -30 65 -30 179 0 105 3 128
23 171 47 102 101 137 203 132 53 -2 75 -8 108 -30z"/>
<path d="M6050 991 c-182 -34 -269 -172 -258 -411 7 -134 32 -205 98 -270 59
-60 127 -85 230 -84 93 0 147 15 202 57 87 67 128 170 128 327 0 241 -99 367
-300 384 -30 3 -75 1 -100 -3z m189 -114 c66 -44 94 -114 99 -248 5 -138 -12
-202 -71 -263 -103 -107 -261 -79 -332 59 -28 56 -30 65 -30 179 0 105 3 128
23 171 47 102 101 137 203 132 53 -2 75 -8 108 -30z"/>
<path d="M3468 953 c10 -16 67 -97 126 -181 59 -84 106 -159 103 -165 -3 -7
-52 -80 -109 -162 -58 -83 -113 -162 -122 -177 l-18 -28 63 0 64 0 90 150 c49
83 92 150 95 150 3 0 45 -67 94 -150 l88 -150 59 0 c32 0 59 2 59 5 0 2 -54
84 -120 181 -66 98 -120 182 -120 187 0 5 54 87 120 183 66 96 120 177 120
180 0 3 -28 4 -62 2 l-63 -3 -82 -134 c-46 -74 -87 -139 -91 -143 -5 -5 -48
57 -96 137 l-87 145 -65 0 -65 0 19 -27z"/>
<path d="M445 596 c-22 -8 -78 -35 -125 -60 -47 -25 -92 -46 -101 -46 -9 0
-24 11 -33 25 l-16 25 -80 -40 c-44 -22 -80 -42 -80 -44 0 -9 191 -431 199
-439 12 -12 161 64 161 83 0 8 -5 22 -10 30 -23 37 73 39 200 4 77 -21 109
-25 170 -21 118 7 303 67 475 151 181 89 200 103 191 139 -17 71 -103 87 -232
43 l-69 -23 -26 28 c-24 27 -33 29 -95 29 -92 0 -174 21 -299 75 -117 51 -172
61 -230 41z m190 -62 c133 -59 185 -74 300 -87 121 -14 140 -28 88 -64 -65
-45 -150 -55 -254 -28 -63 17 -88 13 -69 -10 16 -19 105 -38 180 -39 69 -1
116 13 167 51 40 29 199 83 246 83 36 0 67 -21 67 -45 0 -25 -312 -171 -449
-210 -174 -50 -206 -52 -326 -20 -73 19 -120 26 -175 24 l-75 -2 -57 124 c-62
135 -66 149 -42 149 9 0 64 25 122 55 132 68 162 70 277 19z m-389 -238 c46
-104 83 -190 82 -191 -9 -8 -89 -45 -96 -45 -9 0 -172 359 -172 379 0 13 70
51 89 48 7 -1 51 -87 97 -191z"/>
</g>
</svg>
